<svg xmlns="http://www.w3.org/2000/svg" width="24.001" height="24" viewBox="0 0 24.001 24"><defs><style>.a{fill:none;}.b{fill:#fafaff;}</style></defs><path class="a" d="M266.921,847.709a7.684,7.684,0,0,0,.4-2.4,7.684,7.684,0,0,1-.4,2.4Z" transform="translate(-247.583 -833.309)"/><path class="b" d="M257.183,835.829v-2.52h-9.6v9.6H250.1A9.809,9.809,0,0,1,257.183,835.829Z" transform="translate(-247.583 -833.309)"/><path class="b" d="M271.584,833.309h-9.6v2.52a9.809,9.809,0,0,1,7.08,7.08h2.521Z" transform="translate(-247.583 -833.309)"/><path class="b" d="M250.1,847.709h-2.521v9.6h9.6v-2.52A9.807,9.807,0,0,1,250.1,847.709Z" transform="translate(-247.583 -833.309)"/><path class="b" d="M259.583,837.576a7.733,7.733,0,1,0,7.733,7.733A7.733,7.733,0,0,0,259.583,837.576ZM258.017,850l-.834-.834-1.453-1.454-1.622-1.622,1.557-1.556,2.352,2.352,3.975-3.974,1.51-1.51,1.557,1.557Z" transform="translate(-247.583 -833.309)"/><path class="b" d="M266.383,848.995a7.752,7.752,0,0,0,.538-1.286h0A7.752,7.752,0,0,1,266.383,848.995Z" transform="translate(-247.583 -833.309)"/><path class="b" d="M261.983,854.789v2.52h9.6v-9.6h-2.521A9.807,9.807,0,0,1,261.983,854.789Z" transform="translate(-247.583 -833.309)"/></svg>