<svg xmlns="http://www.w3.org/2000/svg" width="33" height="33" viewBox="0 0 33 33"><defs><style>.a,.b{fill:none;stroke:#317aff;}.b{stroke-width:1.045px;}.c{fill:#317aff;}</style></defs><g transform="translate(-346 -79)"><path class="a" d="M185.607,78.5a16,16,0,1,0,16,16A16,16,0,0,0,185.607,78.5Z" transform="translate(176.893 1)"/><g transform="translate(178.526 3.717)"><g transform="translate(-1)"><line class="b" x2="6.233" transform="translate(186.607 92.307)"/><line class="b" x2="6.233" transform="translate(186.607 88.943)"/><line class="b" x2="6.233" transform="translate(186.607 95.67)"/></g><circle class="c" cx="2.975" cy="2.975" r="2.975" transform="translate(176.404 86.315) rotate(-9.992)"/><path class="c" d="M182.641,98.838h.511a1.06,1.06,0,0,0,1.064-1.187c-.4-2.823-2.2-4.953-4.366-4.953s-3.966,2.13-4.366,4.953a1.06,1.06,0,0,0,1.064,1.187h6.093Z"/></g></g></svg>