<svg xmlns="http://www.w3.org/2000/svg" width="33" height="33" viewBox="0 0 33 33"><defs><style>.a{fill:none;stroke:#317aff;}.b{fill:#317aff;}</style></defs><g transform="translate(-226 -79)"><path class="a" d="M96.575,78.5a16,16,0,1,0,16,16A16,16,0,0,0,96.575,78.5Z" transform="translate(145.925 1)"/><g transform="translate(0.309 -0.018)"><rect class="b" width="2.758" height="2.888" transform="translate(240.993 101.13)"/><path class="b" d="M99.656,91.926a7.673,7.673,0,0,1-1.226,1.712c-.233.246-.455.465-.666.653s-.406.374-.583.551a2.81,2.81,0,0,0-.441.561,2.527,2.527,0,0,0-.36.866,6.83,6.83,0,0,0-.054.985h-2.78a7.127,7.127,0,0,1,.147-1.454,4.527,4.527,0,0,1,.486-1.3,3.391,3.391,0,0,1,.653-.921,10.068,10.068,0,0,1,.807-.686,8.679,8.679,0,0,0,.992-.92,2.549,2.549,0,0,0,.589-.976,3.714,3.714,0,0,0,.141-1.042,2.893,2.893,0,0,0-.076-.675,1.3,1.3,0,0,0-.273-.545,1.663,1.663,0,0,0-.785-.572,3.071,3.071,0,0,0-1.025-.17,3.172,3.172,0,0,0-.854.115,1.815,1.815,0,0,0-.693.355,1.543,1.543,0,0,0-.479.642,2.114,2.114,0,0,0-.142.84H90.266a5.519,5.519,0,0,1,.594-2.021,4.084,4.084,0,0,1,1.281-1.488,4.432,4.432,0,0,1,1.4-.686,5.539,5.539,0,0,1,1.564-.229,6.806,6.806,0,0,1,2.262.371,3.949,3.949,0,0,1,1.771,1.22,3.876,3.876,0,0,1,.747,1.286,4.485,4.485,0,0,1,.256,1.483A4.348,4.348,0,0,1,99.656,91.926Z" transform="translate(147.425 2.5)"/></g></g></svg>
