<?xml version="1.0" encoding="utf-8"?>
<!-- Generator: Adobe Illustrator 25.1.0, SVG Export Plug-In . SVG Version: 6.00 Build 0)  -->
<svg version="1.1" id="Layer_1" xmlns="http://www.w3.org/2000/svg" xmlns:xlink="http://www.w3.org/1999/xlink" x="0px" y="0px"
	 viewBox="0 0 60 60" style="enable-background:new 0 0 60 60;" xml:space="preserve">
<style type="text/css">
	.st0{fill:#001C32;}
	.st1{fill:#FAFAFF;}
	.st2{fill:none;stroke:#001C32;stroke-miterlimit:10;}
	.st3{clip-path:url(#SVGID_3_);}
	.st4{clip-path:url(#SVGID_4_);fill:none;stroke:#001C32;stroke-miterlimit:10;}
	.st5{clip-path:url(#SVGID_4_);}
	.st6{clip-path:url(#SVGID_7_);}
	.st7{clip-path:url(#SVGID_8_);fill:none;stroke:#001C32;stroke-miterlimit:10;}
	.st8{clip-path:url(#SVGID_8_);}
	.st9{clip-path:url(#SVGID_11_);}
	.st10{clip-path:url(#SVGID_12_);fill:none;stroke:#001C32;stroke-miterlimit:10;}
	.st11{clip-path:url(#SVGID_12_);}
	.st12{clip-path:url(#SVGID_15_);}
	.st13{clip-path:url(#SVGID_16_);fill:#001C32;}
	.st14{clip-path:url(#SVGID_16_);}
	.st15{clip-path:url(#SVGID_18_);}
</style>
<ellipse transform="matrix(0.9848 -0.1735 0.1735 0.9848 -4.7501 5.6601)" class="st0" cx="30" cy="30" rx="30" ry="30"/>
<g>
	<defs>
		<ellipse id="SVGID_17_" transform="matrix(0.9848 -0.1735 0.1735 0.9848 -4.7501 5.6601)" cx="30" cy="30" rx="30" ry="30"/>
	</defs>
	<clipPath id="SVGID_3_">
		<use xlink:href="#SVGID_17_"  style="overflow:visible;"/>
	</clipPath>
	<g class="st3">
		<ellipse transform="matrix(0.9848 -0.1735 0.1735 0.9848 -2.673 5.4785)" class="st1" cx="30" cy="18" rx="11.5" ry="11.5"/>
		<path class="st1" d="M42.1,60l4.7,0c1.4,0,2.5-1.2,2.4-2.6c-1-13.5-9.2-24-19.2-24s-18.3,10.5-19.2,24c-0.1,1.4,1,2.6,2.4,2.6
			l4.7,0H42.1z"/>
		<rect x="28.2" y="52.4" class="st0" width="3.1" height="3.2"/>
		<path class="st0" d="M35,44.9c-0.4,0.7-0.8,1.3-1.4,1.9c-0.3,0.3-0.5,0.5-0.7,0.7s-0.5,0.4-0.7,0.6c-0.2,0.2-0.4,0.4-0.5,0.6
			c-0.2,0.4-0.4,0.7-0.4,1c0,0.3-0.1,0.6-0.1,1.1h-3.1c0-0.6,0.1-1.1,0.2-1.6c0.1-0.5,0.3-1,0.5-1.5c0.2-0.4,0.5-0.8,0.7-1
			c0.3-0.3,0.6-0.5,0.9-0.8c0.3-0.3,0.7-0.6,1.1-1c0.3-0.4,0.6-0.7,0.7-1.1c0.1-0.4,0.2-0.7,0.2-1.2c0-0.3,0-0.5-0.1-0.8
			s-0.2-0.4-0.3-0.6c-0.2-0.3-0.5-0.5-0.9-0.6c-0.4-0.1-0.7-0.2-1.1-0.2c-0.3,0-0.6,0-1,0.1c-0.3,0.1-0.6,0.2-0.8,0.4
			c-0.2,0.2-0.4,0.4-0.5,0.7c-0.1,0.3-0.2,0.6-0.2,0.9h-3.1c0.1-0.8,0.3-1.6,0.7-2.3c0.4-0.7,0.8-1.2,1.4-1.7c0.5-0.3,1-0.6,1.6-0.8
			c0.6-0.2,1.2-0.3,1.7-0.3c0.9,0,1.7,0.1,2.5,0.4c0.8,0.3,1.4,0.7,2,1.4c0.4,0.4,0.6,0.9,0.8,1.4c0.2,0.5,0.3,1.1,0.3,1.7
			C35.5,43.5,35.3,44.2,35,44.9z"/>
	</g>
</g>
<g>
	<path class="st0" d="M30,2.3c15.3,0,27.7,12.4,27.7,27.7c0,15.3-12.4,27.7-27.7,27.7C14.7,57.7,2.3,45.3,2.3,30
		C2.3,14.7,14.7,2.3,30,2.3 M30,0C13.4,0,0,13.4,0,30c0,16.6,13.4,30,30,30c16.6,0,30-13.4,30-30C60,13.4,46.6,0,30,0L30,0z"/>
</g>
</svg>
