<svg xmlns="http://www.w3.org/2000/svg" width="103.766" height="15.18" viewBox="0 0 103.766 15.18"><defs><style>.a{fill:#ff512f;}.b{fill:#fafaff;}</style></defs><path class="a" d="M161.091,57.133a7.182,7.182,0,0,1-2.919-.572,5.43,5.43,0,0,1-2.135-1.64,5.341,5.341,0,0,1-1.058-2.545l2.875-.425a3.2,3.2,0,0,0,1.255,1.933,3.636,3.636,0,0,0,2.165.678,4.163,4.163,0,0,0,1.316-.212,2.6,2.6,0,0,0,1.047-.628,1.474,1.474,0,0,0,.344-1.452,1.166,1.166,0,0,0-.218-.39,1.6,1.6,0,0,0-.43-.344,3.512,3.512,0,0,0-.7-.293l-3.785-1.113q-.425-.122-.987-.344a4.341,4.341,0,0,1-1.087-.638,3.238,3.238,0,0,1-.876-1.1,3.769,3.769,0,0,1-.349-1.725,3.912,3.912,0,0,1,.739-2.439,4.4,4.4,0,0,1,1.973-1.447,7.415,7.415,0,0,1,2.732-.466,7.184,7.184,0,0,1,2.692.516,5.184,5.184,0,0,1,1.984,1.442,5.778,5.778,0,0,1,1.153,2.313l-2.975.506a2.635,2.635,0,0,0-.6-1.194,2.871,2.871,0,0,0-1.037-.739,3.491,3.491,0,0,0-1.26-.273,3.368,3.368,0,0,0-1.22.177,2.3,2.3,0,0,0-.931.572,1.241,1.241,0,0,0-.358.89,1.055,1.055,0,0,0,.293.774,2.157,2.157,0,0,0,.738.481,7.318,7.318,0,0,0,.911.3l2.53.688q.567.151,1.255.4a5.683,5.683,0,0,1,1.32.689,3.5,3.5,0,0,1,1.043,1.158,3.645,3.645,0,0,1,.409,1.822,4.123,4.123,0,0,1-.49,2.049,4.269,4.269,0,0,1-1.321,1.447,6.07,6.07,0,0,1-1.877.855A8.236,8.236,0,0,1,161.091,57.133Z" transform="translate(-154.979 -41.953)"/><path class="a" d="M167.952,48.025V45.9h7.773v2.125Zm7.773,8.8a10.662,10.662,0,0,1-2.222.187,5.314,5.314,0,0,1-1.943-.384,2.6,2.6,0,0,1-1.3-1.159,3.365,3.365,0,0,1-.426-1.523q-.02-.774-.019-1.756v-9.33h2.752v9.168q0,.637.015,1.149a1.613,1.613,0,0,0,.207.815,1.391,1.391,0,0,0,1.164.627,8.989,8.989,0,0,0,1.772-.081Z" transform="translate(-154.979 -41.953)"/><path class="a" d="M182.463,57.133a5.572,5.572,0,0,1-2.894-.739,5.142,5.142,0,0,1-1.938-2.039,6.264,6.264,0,0,1-.693-2.991,6.2,6.2,0,0,1,.708-3.01,5.168,5.168,0,0,1,1.953-2.029,6.025,6.025,0,0,1,5.764.01,5.153,5.153,0,0,1,1.948,2.039,6.755,6.755,0,0,1-.005,5.991,5.148,5.148,0,0,1-1.954,2.034A5.6,5.6,0,0,1,182.463,57.133Zm0-2.571a2.289,2.289,0,0,0,1.979-.9,3.814,3.814,0,0,0,.652-2.3,3.751,3.751,0,0,0-.662-2.327,2.32,2.32,0,0,0-1.969-.87,2.521,2.521,0,0,0-1.477.4,2.379,2.379,0,0,0-.855,1.124,4.593,4.593,0,0,0-.278,1.669,3.748,3.748,0,0,0,.662,2.333A2.3,2.3,0,0,0,182.463,54.562Z" transform="translate(-154.979 -41.953)"/><path class="a" d="M190.236,56.829V45.9h2.429v2.671l-.263-.344a4.05,4.05,0,0,1,.566-1.032,2.98,2.98,0,0,1,.871-.769,3.547,3.547,0,0,1,.86-.38,4.586,4.586,0,0,1,.961-.172,5.14,5.14,0,0,1,.992.026v2.57a2.851,2.851,0,0,0-1.057-.1,3.017,3.017,0,0,0-1.088.278,2.425,2.425,0,0,0-1.326,1.463,3.448,3.448,0,0,0-.172,1.128v5.586Z" transform="translate(-154.979 -41.953)"/><path class="a" d="M203.453,57.133a5.918,5.918,0,0,1-2.961-.724,5.223,5.223,0,0,1-2-1.994,5.783,5.783,0,0,1-.723-2.909,6.524,6.524,0,0,1,.708-3.117,5.163,5.163,0,0,1,1.953-2.059,5.539,5.539,0,0,1,2.864-.734,5.12,5.12,0,0,1,2.925.81A4.754,4.754,0,0,1,208,48.683a7.581,7.581,0,0,1,.4,3.45h-2.722V51.121a4.186,4.186,0,0,0-.532-2.4,2,2,0,0,0-1.735-.734,2.455,2.455,0,0,0-2.07.855,4.079,4.079,0,0,0-.662,2.525,3.721,3.721,0,0,0,.662,2.363,2.338,2.338,0,0,0,1.948.835,2.6,2.6,0,0,0,1.387-.354,2.263,2.263,0,0,0,.881-1.022l2.752.789a4.843,4.843,0,0,1-1.948,2.328A5.394,5.394,0,0,1,203.453,57.133Zm-3.623-5V50.089h7.246v2.044Z" transform="translate(-154.979 -41.953)"/><path class="b" d="M209.867,48.025V45.9h7v2.125Zm1.721,8.8V45.94c0-.276.006-.59.02-.941a4.727,4.727,0,0,1,.167-1.063,2.354,2.354,0,0,1,.542-.971,2.651,2.651,0,0,1,1.1-.774,3.779,3.779,0,0,1,1.148-.223q.557-.015.951-.015h1.356v2.226h-1.254a1.274,1.274,0,0,0-.962.329,1.1,1.1,0,0,0-.314.785V56.829Z" transform="translate(-154.979 -41.953)"/><path class="b" d="M218.489,56.829V45.9h2.429v2.671l-.263-.344a4.08,4.08,0,0,1,.566-1.032,2.98,2.98,0,0,1,.871-.769,3.564,3.564,0,0,1,.86-.38,4.586,4.586,0,0,1,.961-.172,5.141,5.141,0,0,1,.992.026v2.57a2.851,2.851,0,0,0-1.057-.1,3.017,3.017,0,0,0-1.088.278,2.425,2.425,0,0,0-1.326,1.463,3.448,3.448,0,0,0-.172,1.128v5.586Z" transform="translate(-154.979 -41.953)"/><path class="b" d="M231.543,57.133a5.572,5.572,0,0,1-2.894-.739,5.142,5.142,0,0,1-1.938-2.039,6.263,6.263,0,0,1-.693-2.991,6.2,6.2,0,0,1,.708-3.01,5.168,5.168,0,0,1,1.953-2.029,6.025,6.025,0,0,1,5.764.01,5.153,5.153,0,0,1,1.948,2.039,6.755,6.755,0,0,1-.005,5.991,5.148,5.148,0,0,1-1.954,2.034A5.6,5.6,0,0,1,231.543,57.133Zm0-2.571a2.289,2.289,0,0,0,1.979-.9,3.814,3.814,0,0,0,.652-2.3,3.751,3.751,0,0,0-.662-2.327,2.32,2.32,0,0,0-1.969-.87,2.521,2.521,0,0,0-1.477.4,2.385,2.385,0,0,0-.855,1.124,4.593,4.593,0,0,0-.278,1.669A3.748,3.748,0,0,0,229.6,53.7,2.3,2.3,0,0,0,231.543,54.562Z" transform="translate(-154.979 -41.953)"/><path class="b" d="M239.295,56.829V45.9h2.449v3.623h.344v7.306Zm7.469,0V51.668c0-.25-.015-.568-.041-.956a4.325,4.325,0,0,0-.253-1.169,2.232,2.232,0,0,0-.694-.982,2.09,2.09,0,0,0-1.361-.394,2.885,2.885,0,0,0-.759.111,1.879,1.879,0,0,0-.759.43,2.311,2.311,0,0,0-.581.936,4.841,4.841,0,0,0-.228,1.639l-1.578-.748a5.68,5.68,0,0,1,.526-2.429,4.35,4.35,0,0,1,1.583-1.832,4.748,4.748,0,0,1,2.667-.7,4.413,4.413,0,0,1,2.1.435,3.447,3.447,0,0,1,1.259,1.1,4.562,4.562,0,0,1,.643,1.392,7.134,7.134,0,0,1,.233,1.32q.04.6.04.87v6.133Z" transform="translate(-154.979 -41.953)"/><path class="b" d="M250.973,48.025V45.9h7.772v2.125Zm7.772,8.8a10.653,10.653,0,0,1-2.221.187,5.323,5.323,0,0,1-1.944-.384,2.6,2.6,0,0,1-1.3-1.159,3.376,3.376,0,0,1-.425-1.523q-.02-.774-.02-1.756v-9.33h2.752v9.168c0,.425.006.808.015,1.149a1.613,1.613,0,0,0,.208.815,1.388,1.388,0,0,0,1.164.627,8.982,8.982,0,0,0,1.771-.081Z" transform="translate(-154.979 -41.953)"/></svg>