<svg xmlns="http://www.w3.org/2000/svg" width="28" height="28" viewBox="0 0 28 28"><defs><style>.a{fill:#317aff;}.b{fill:#ff512f;}.c{fill:#001c32;}</style></defs><path class="a" d="M63.687,29.133H57.544L35.687,41.751v6.309l28-16.166Z" transform="translate(-35.687 -29.133)"/><path class="b" d="M35.687,29.133h0v6.309l10.928-6.309Z" transform="translate(-35.687 -29.133)"/><path class="c" d="M46.616,29.133,35.687,35.442v6.309L57.544,29.133Z" transform="translate(-35.687 -29.133)"/><path class="b" d="M63.687,50.823,52.759,57.133H63.687Z" transform="translate(-35.687 -29.133)"/><path class="c" d="M63.687,31.9l-28,16.166V54.37l28-16.166Z" transform="translate(-35.687 -29.133)"/><path class="c" d="M63.687,44.514,41.831,57.133H52.759l10.928-6.309Z" transform="translate(-35.687 -29.133)"/><path class="b" d="M63.687,38.2l-28,16.166v2.762h6.144L63.687,44.514Z" transform="translate(-35.687 -29.133)"/></svg>